<svg width="512" height="512" viewBox="0 0 512 512" fill="none" xmlns="http://www.w3.org/2000/svg">
  <defs>
    <linearGradient id="bg" x1="96" y1="76" x2="418" y2="438" gradientUnits="userSpaceOnUse">
      <stop stop-color="#3B82F6"/>
      <stop offset="1" stop-color="#1D4ED8"/>
    </linearGradient>
    <linearGradient id="tile" x1="172" y1="150" x2="340" y2="350" gradientUnits="userSpaceOnUse">
      <stop stop-color="#EFF6FF"/>
      <stop offset="1" stop-color="#DBEAFE"/>
    </linearGradient>
    <filter id="shadow" x="44" y="44" width="424" height="424" filterUnits="userSpaceOnUse" color-interpolation-filters="sRGB">
      <feFlood flood-opacity="0" result="BackgroundImageFix"/>
      <feColorMatrix in="SourceAlpha" type="matrix" values="0 0 0 0 0 0 0 0 0 0 0 0 0 0 0 0 0 0 127 0" result="hardAlpha"/>
      <feOffset dy="18"/>
      <feGaussianBlur stdDeviation="18"/>
      <feComposite in2="hardAlpha" operator="out"/>
      <feColorMatrix type="matrix" values="0 0 0 0 0.0705882 0 0 0 0 0.14902 0 0 0 0 0.301961 0 0 0 0.22 0"/>
      <feBlend mode="normal" in2="BackgroundImageFix" result="effect1_dropShadow_1_1"/>
      <feBlend mode="normal" in="SourceGraphic" in2="effect1_dropShadow_1_1" result="shape"/>
    </filter>
  </defs>
  <g filter="url(#shadow)">
    <rect x="80" y="80" width="352" height="352" rx="92" fill="url(#bg)"/>
    <path d="M112 154C112 131.909 129.909 114 152 114H360C382.091 114 400 131.909 400 154V210H112V154Z" fill="white" fill-opacity="0.14"/>
    <rect x="154" y="154" width="84" height="84" rx="24" fill="url(#tile)"/>
    <rect x="274" y="154" width="84" height="84" rx="24" fill="url(#tile)"/>
    <rect x="154" y="274" width="84" height="84" rx="24" fill="url(#tile)"/>
    <rect x="274" y="274" width="84" height="84" rx="24" fill="#BFDBFE"/>
    <path d="M188 180H204M196 172V188" stroke="#2563EB" stroke-width="12" stroke-linecap="round"/>
    <path d="M296 186H328" stroke="#2563EB" stroke-width="12" stroke-linecap="round"/>
    <path d="M182 312L196 326L212 304" stroke="#2563EB" stroke-width="12" stroke-linecap="round" stroke-linejoin="round"/>
    <path d="M296 308H336" stroke="#1D4ED8" stroke-width="12" stroke-linecap="round"/>
    <path d="M296 332H322" stroke="#1D4ED8" stroke-width="12" stroke-linecap="round"/>
  </g>
</svg>
